<svg  viewBox="0 0 415 99"  xmlns="http://www.w3.org/2000/svg">
<path d="M269.1 63.2656C269.1 70.0791 270.836 75.334 274.31 79.0303C277.783 82.7266 282.883 84.5752 289.607 84.5752C293.125 84.5752 296.332 84.0633 299.227 83.0391C302.121 81.9703 304.638 80.4337 306.775 78.4297C308.913 76.4257 310.561 73.9985 311.719 71.1484C312.921 68.2982 313.522 65.0911 313.522 61.5283V26.458H331.292V97H313.522V83.1719H313.121C311.429 86.2893 309.136 89.0065 306.241 91.3223C303.391 93.638 300.029 95.4419 296.154 96.7334C292.324 97.9803 288.093 98.6035 283.462 98.6035C276.826 98.6035 271.104 97.3562 266.294 94.8623C261.529 92.3238 257.832 88.6724 255.204 83.9072C252.621 79.0976 251.33 73.3081 251.33 66.5391V26.458H269.1V63.2656Z" fill="currentColor"/>
<path d="M374.451 24.8545C382.289 24.8545 388.969 25.745 394.491 27.5264C400.013 29.2632 404.266 31.7578 407.25 35.0088C410.278 38.2598 411.971 42.112 412.327 46.5654L412.394 47.2998H395.827L395.761 46.8994C395.271 43.8266 393.178 41.3986 389.481 39.6172C385.83 37.8358 380.886 36.9453 374.651 36.9453C370.688 36.9453 367.347 37.324 364.631 38.0811C361.914 38.7936 359.866 39.8402 358.485 41.2207C357.105 42.5567 356.414 44.2046 356.414 46.1641V46.2314C356.414 47.7454 356.838 49.0368 357.684 50.1055C358.574 51.1742 359.977 52.0648 361.892 52.7773C363.851 53.4454 366.412 53.9582 369.574 54.3145L389.28 56.3184C398.276 57.3427 404.734 59.4357 408.653 62.5977C412.572 65.7151 414.531 70.1239 414.531 75.8242V75.8906C414.531 80.5667 413.039 84.6197 410.056 88.0488C407.116 91.4333 402.864 94.0384 397.297 95.8643C391.73 97.6901 385.05 98.6035 377.257 98.6035C368.973 98.6035 361.914 97.7349 356.08 95.998C350.246 94.2613 345.704 91.7674 342.453 88.5166C339.202 85.2211 337.287 81.2794 336.708 76.6924L336.641 76.0908L354.143 76.1582L354.276 76.626C355.078 79.9214 357.394 82.3933 361.224 84.041C365.054 85.6888 370.465 86.5127 377.457 86.5127C381.599 86.5127 385.094 86.1559 387.944 85.4434C390.795 84.6863 392.955 83.6179 394.425 82.2373C395.894 80.8568 396.629 79.186 396.629 77.2266V77.1602C396.629 74.7553 395.649 72.9515 393.689 71.749C391.774 70.5021 388.367 69.5897 383.469 69.0107L363.963 67.0059C358.352 66.3378 353.675 65.1581 349.935 63.4658C346.238 61.7735 343.454 59.5691 341.584 56.8525C339.714 54.0915 338.778 50.8404 338.778 47.0996V47.0322C338.778 42.4455 340.204 38.5044 343.054 35.209C345.904 31.8689 350.002 29.3077 355.346 27.5264C360.69 25.7451 367.059 24.8545 374.451 24.8545Z" fill="currentColor"/>
<path fill-rule="evenodd" clip-rule="evenodd" d="M120.589 24.8545C128.605 24.8545 135.463 25.9458 141.163 28.1279C146.863 30.3101 151.229 33.4269 154.257 37.4795C157.285 41.5321 158.799 46.3871 158.799 52.043V97H141.03V84.7754H140.695C139.048 87.5365 136.732 89.9417 133.748 91.9902C130.764 93.9941 127.313 95.5527 123.395 96.666C119.476 97.7348 115.222 98.2695 110.635 98.2695C104.356 98.2695 98.8781 97.4236 94.2021 95.7314C89.5262 94.0392 85.8965 91.5672 83.3135 88.3164C80.775 85.0209 79.5059 80.9898 79.5059 76.2246V76.1582C79.5059 72.1058 80.5297 68.5654 82.5781 65.5371C84.6267 62.5088 87.8557 60.1255 92.2646 58.3887C96.718 56.6519 102.463 55.6948 109.499 55.5166L141.03 54.8916V52.7109C141.03 48.0349 139.226 44.4052 135.619 41.8223C132.056 39.2393 126.957 37.9473 120.321 37.9473C114.532 37.9473 109.878 38.9053 106.359 40.8203C102.886 42.7353 100.704 45.3185 99.8135 48.5693L99.6133 49.1699H82.7119L82.8457 48.3682C83.5583 43.8258 85.4954 39.7954 88.6572 36.2773C91.8637 32.7146 96.1393 29.9318 101.483 27.9277C106.872 25.8792 113.241 24.8545 120.589 24.8545ZM111.971 66.2715C106.761 66.4051 102.976 67.2738 100.615 68.877C98.2995 70.4802 97.1416 72.6399 97.1416 75.3564V75.4902C97.1416 78.9638 98.7667 81.5688 102.018 83.3057C105.313 84.998 109.655 85.8447 115.044 85.8447C120.254 85.8447 124.797 85.1321 128.672 83.707C132.591 82.2374 135.619 80.188 137.757 77.5605C139.939 74.8886 141.03 71.7714 141.03 68.209V65.5557L111.971 66.2715Z" fill="currentColor"/>
<path d="M99.0059 15.5693H58.8584V97H40.4209V15.5693H0.273438V0.605469H99.0059V15.5693Z" fill="currentColor"/>
<path d="M205.231 81.3682H205.565L230.616 26.458H249.12L214.784 97H195.679L160.875 26.458H179.646L205.231 81.3682Z" fill="currentColor"/>
</svg>
